<svg xmlns="http://www.w3.org/2000/svg" version="1.1" xmlns:xlink="http://www.w3.org/1999/xlink" xmlns:svgjs="http://svgjs.com/svgjs" width="1585" height="300" transform="matrix(1,0,0,1,0,0)">
  <text font-family="DM Sans" font-size="260" text-anchor="left" x="310" charspacing="20px">
    <tspan dy="239.20000000000002" x="310">Ukobach</tspan>
  </text>
  <path transform="matrix(6.123233995736766e-17,1,-1,6.123233995736766e-17,148,149.33)" d="M22.357,26.997A5,5,104.00412957453288,0,1,20.126,21.26L39.688,-43.739A5,5,-15.91064821664809,0,0,30.691,-47.878L0,0L82.132,56.906A2.435092252239457,2.435092252239457,3.962035269306077,0,1,79.5,61ZM-22.357,-26.997A5,5,104.00412957453291,0,1,-20.126,-21.26L-39.688,43.739A5,5,-15.910648216648083,0,0,-30.691,47.878L0,0L-82.132,-56.906A2.4350922522394725,2.4350922522394725,3.962035269306103,0,1,-79.5,-61Z"/>
</svg>